<?xml version="1.0" encoding="iso-8859-1"?>
<!-- Generator: Adobe Illustrator 19.0.0, SVG Export Plug-In . SVG Version: 6.00 Build 0)  -->
<svg version="1.1" id="Capa_1" xmlns="http://www.w3.org/2000/svg" xmlns:xlink="http://www.w3.org/1999/xlink" x="0px" y="0px"
	 viewBox="0 0 512 512" style="enable-background:new 0 0 512 512;" xml:space="preserve">
<g>
	<g>
		<path d="M457.661,0H54.339C24.376,0,0,24.376,0,54.339v10.434c0,4.477,3.629,8.106,8.106,8.106s8.106-3.629,8.106-8.106V54.339
			c0-21.023,17.103-38.127,38.127-38.127h403.322c21.023,0,38.127,17.104,38.127,38.127v403.323
			c0,21.023-17.104,38.127-38.127,38.127H54.339c-21.023,0-38.127-17.104-38.127-38.127V98.319c0-4.477-3.629-8.106-8.106-8.106
			S0,93.841,0,98.319v359.343C0,487.624,24.376,512,54.339,512h403.322C487.624,512,512,487.624,512,457.661V54.339
			C512,24.376,487.624,0,457.661,0z"/>
	</g>
</g>
<g>
	<g>
		<path d="M258.636,260.602l85.287-85.287c3.166-3.166,3.166-8.298,0-11.465L253.09,73.017c-2.318-2.318-5.806-3.01-8.834-1.756
			c-3.029,1.254-5.004,4.21-5.004,7.489v162.469l-91.031-91.03c-3.165-3.164-8.298-3.164-11.463,0
			c-3.166,3.166-3.166,8.298,0,11.464l98.95,98.95l-94.672,94.672c-3.166,3.166-3.166,8.298,0,11.464
			c3.165,3.164,8.298,3.164,11.463,0l86.753-86.753v160.833c0,3.278,1.975,6.235,5.004,7.489c1.003,0.416,2.056,0.617,3.1,0.617
			c2.109,0,4.183-0.823,5.733-2.374l19.569-19.569c3.166-3.166,3.166-8.298,0-11.464c-3.165-3.164-8.298-3.164-11.463,0
			l-5.732,5.732V280.358l70.446,70.445l-44.187,44.187c-3.166,3.166-3.166,8.298,0,11.464c1.583,1.582,3.657,2.374,5.732,2.374
			c2.075,0,4.149-0.792,5.732-2.374l49.919-49.919c3.166-3.166,3.166-8.298,0-11.464L258.636,260.602z M255.464,98.319
			l71.263,71.264l-71.263,71.263V98.319z"/>
	</g>
</g>
<g>
</g>
<g>
</g>
<g>
</g>
<g>
</g>
<g>
</g>
<g>
</g>
<g>
</g>
<g>
</g>
<g>
</g>
<g>
</g>
<g>
</g>
<g>
</g>
<g>
</g>
<g>
</g>
<g>
</g>
</svg>
