<?xml version="1.0" encoding="iso-8859-1"?>
<!-- Generator: Adobe Illustrator 19.0.0, SVG Export Plug-In . SVG Version: 6.00 Build 0)  -->
<svg version="1.1" id="Capa_1" xmlns="http://www.w3.org/2000/svg" xmlns:xlink="http://www.w3.org/1999/xlink" x="0px" y="0px"
	 viewBox="0 0 512 512" style="enable-background:new 0 0 512 512;" xml:space="preserve">
<g>
	<g>
		<path d="M509.773,250.622l-70.526-70.525V80.358c0-4.201-3.404-7.605-7.605-7.605h-99.739L261.378,2.227
			c-2.97-2.969-7.784-2.969-10.756,0l-70.525,70.525H80.359c-4.201,0-7.605,3.404-7.605,7.605v99.739L2.227,250.622
			c-2.97,2.971-2.97,7.785,0,10.756l70.525,70.524v27.146c0,4.201,3.404,7.605,7.605,7.605s7.605-3.404,7.605-7.605v-30.296
			c0-2.017-0.801-3.951-2.227-5.378L18.36,256l67.375-67.375c1.426-1.427,2.227-3.361,2.227-5.378V87.963h95.284
			c2.017,0,3.951-0.801,5.378-2.227L256,18.36l67.374,67.375c1.427,1.426,3.361,2.227,5.378,2.227h95.284v95.284
			c0,2.017,0.801,3.951,2.227,5.378L493.641,256l-67.376,67.374c-1.426,1.427-2.227,3.361-2.227,5.378v95.284h-95.284
			c-2.017,0-3.951,0.801-5.378,2.227L256,493.639l-67.375-67.376c-1.427-1.426-3.361-2.227-5.378-2.227H87.964v-39.721
			c0-4.201-3.404-7.605-7.605-7.605c-4.201,0-7.605,3.404-7.605,7.605v47.326c0,4.201,3.404,7.605,7.605,7.605h99.739l70.525,70.526
			c1.427,1.426,3.361,2.227,5.378,2.227s3.951-0.801,5.378-2.227l70.524-70.526h99.739c4.201,0,7.605-3.404,7.605-7.605v-99.739
			l70.526-70.524c1.426-1.427,2.227-3.361,2.227-5.378C512,253.983,511.2,252.049,509.773,250.622z"/>
	</g>
</g>
<g>
	<g>
		<path d="M350.408,146.112c-3.184-2.74-7.986-2.378-10.724,0.808c-2.739,3.185-2.377,7.986,0.808,10.724
			c28.705,24.684,45.169,60.534,45.169,98.356c0,71.495-58.166,129.661-129.661,129.661c-71.496,0-129.662-58.166-129.662-129.661
			c0-71.496,58.166-129.662,129.662-129.662c19.334,0,37.928,4.15,55.269,12.334c3.796,1.792,8.33,0.168,10.123-3.631
			c1.793-3.799,0.167-8.331-3.631-10.123c-19.386-9.15-40.165-13.789-61.761-13.789c-79.883,0-144.872,64.989-144.872,144.872
			c0,79.882,64.989,144.871,144.872,144.871c79.882,0,144.871-64.989,144.871-144.871
			C400.871,213.742,382.478,173.689,350.408,146.112z"/>
	</g>
</g>
<g>
</g>
<g>
</g>
<g>
</g>
<g>
</g>
<g>
</g>
<g>
</g>
<g>
</g>
<g>
</g>
<g>
</g>
<g>
</g>
<g>
</g>
<g>
</g>
<g>
</g>
<g>
</g>
<g>
</g>
</svg>
