<?xml version="1.0" encoding="iso-8859-1"?>
<!-- Generator: Adobe Illustrator 19.0.0, SVG Export Plug-In . SVG Version: 6.00 Build 0)  -->
<svg version="1.1" id="Capa_1" xmlns="http://www.w3.org/2000/svg" xmlns:xlink="http://www.w3.org/1999/xlink" x="0px" y="0px"
	 viewBox="0 0 512 512" style="enable-background:new 0 0 512 512;" xml:space="preserve">
<g>
	<g>
		<path d="M395.283,13.848H116.718C52.36,13.848,0,66.207,0,130.566s52.36,116.718,116.718,116.718H344
			c4.271,0,7.734-3.462,7.734-7.734s-3.463-7.734-7.734-7.734H116.718c-55.829,0-101.25-45.421-101.25-101.25
			c0-55.829,45.421-101.25,101.25-101.25h278.565c55.829,0,101.249,45.421,101.249,101.25c0,55.829-45.42,101.25-101.249,101.25
			h-14.111c-4.271,0-7.734,3.462-7.734,7.734c0,4.272,3.463,7.734,7.734,7.734h14.111c64.358,0,116.717-52.359,116.717-116.718
			S459.641,13.848,395.283,13.848z"/>
	</g>
</g>
<g>
	<g>
		<path d="M178.825,66.205c-3.216-2.813-8.102-2.485-10.913,0.73c-2.812,3.214-2.486,8.101,0.729,10.913
			c15.214,13.307,23.94,32.522,23.94,52.719c0,38.606-31.408,70.013-70.014,70.013c-38.606,0-70.014-31.408-70.014-70.013
			s31.408-70.014,70.014-70.014c8.013,0,15.866,1.34,23.342,3.983c4.028,1.422,8.447-0.687,9.87-4.714
			c1.423-4.027-0.687-8.446-4.714-9.87c-9.136-3.23-18.724-4.867-28.498-4.867c-47.135,0-85.482,38.347-85.482,85.482
			c0,47.135,38.347,85.482,85.482,85.482s85.482-38.347,85.482-85.482C208.049,105.91,197.397,82.451,178.825,66.205z"/>
	</g>
</g>
<g>
	<g>
		<path d="M395.283,264.716H116.718C52.36,264.716,0,317.075,0,381.434s52.36,116.718,116.718,116.718h12.58
			c4.271,0,7.734-3.462,7.734-7.734c0-4.272-3.463-7.734-7.734-7.734h-12.58c-55.829,0-101.25-45.421-101.25-101.25
			c0-55.829,45.421-101.25,101.25-101.25h278.565c55.829,0,101.249,45.421,101.249,101.25c0,55.829-45.42,101.25-101.249,101.25
			h-234.58c-4.271,0-7.734,3.462-7.734,7.734c0,4.272,3.463,7.734,7.734,7.734h234.58c64.358,0,116.717-52.359,116.717-116.718
			S459.641,264.716,395.283,264.716z"/>
	</g>
</g>
<g>
	<g>
		<path d="M394.867,295.952c-47.135,0-85.482,38.347-85.482,85.482c0,47.135,38.347,85.482,85.482,85.482
			s85.482-38.348,85.482-85.482C480.349,334.3,442.002,295.952,394.867,295.952z M394.867,451.447
			c-38.606,0-70.014-31.407-70.014-70.013c0-38.606,31.408-70.013,70.014-70.013s70.014,31.408,70.014,70.013
			C464.881,420.039,433.473,451.447,394.867,451.447z"/>
	</g>
</g>
<g>
</g>
<g>
</g>
<g>
</g>
<g>
</g>
<g>
</g>
<g>
</g>
<g>
</g>
<g>
</g>
<g>
</g>
<g>
</g>
<g>
</g>
<g>
</g>
<g>
</g>
<g>
</g>
<g>
</g>
</svg>
