<?xml version="1.0" encoding="iso-8859-1"?>
<!-- Generator: Adobe Illustrator 19.0.0, SVG Export Plug-In . SVG Version: 6.00 Build 0)  -->
<svg version="1.1" id="Capa_1" xmlns="http://www.w3.org/2000/svg" xmlns:xlink="http://www.w3.org/1999/xlink" x="0px" y="0px"
	 viewBox="0 0 512 512" style="enable-background:new 0 0 512 512;" xml:space="preserve">
<g>
	<g>
		<path d="M468.636,49.027H43.364C19.453,49.027,0,68.481,0,92.391v37.876v289.341c0,23.911,19.453,43.364,43.364,43.364h19.688
			c4.477,0,8.106-3.629,8.106-8.106s-3.629-8.106-8.106-8.106H43.364c-14.972,0-27.152-12.18-27.152-27.152V138.374h418.299
			c4.477,0,8.106-3.629,8.106-8.106s-3.629-8.106-8.106-8.106H16.212v-29.77c0-14.972,12.18-27.152,27.152-27.152h425.272
			c14.972,0,27.152,12.18,27.152,27.152v29.77h-30.926c-4.477,0-8.106,3.629-8.106,8.106c0,4.477,3.629,8.106,8.106,8.106h30.926
			v281.235c0,14.972-12.181,27.152-27.152,27.152H92.083c-4.477,0-8.106,3.629-8.106,8.106s3.629,8.106,8.106,8.106h376.553
			c23.911,0,43.364-19.453,43.364-43.364V130.268V92.391C512,68.481,492.547,49.027,468.636,49.027z"/>
	</g>
</g>
<g>
	<g>
		<path d="M159.733,373.266H138.35c-9.748,0-17.68,7.931-17.68,17.68v21.382c0,9.749,7.931,17.68,17.68,17.68h21.383
			c9.748,0,17.68-7.931,17.68-17.68v-21.382C177.413,381.197,169.482,373.266,159.733,373.266z M161.202,412.328
			c0,0.81-0.659,1.468-1.468,1.468H138.35c-0.809,0-1.467-0.658-1.467-1.468v-21.382c0-0.81,0.659-1.468,1.468-1.468h21.383
			c0.809,0,1.468,0.659,1.468,1.468V412.328z"/>
	</g>
</g>
<g>
	<g>
		<path d="M231.038,373.266h-21.382c-9.749,0-17.68,7.931-17.68,17.68v21.382c0,9.749,7.931,17.68,17.68,17.68h21.382
			c9.748,0,17.68-7.931,17.68-17.68v-21.382C248.718,381.197,240.787,373.266,231.038,373.266z M232.506,412.328
			c0,0.81-0.659,1.468-1.468,1.468h-21.382c-0.809,0-1.468-0.658-1.468-1.468v-21.382c0-0.81,0.659-1.468,1.468-1.468h21.382
			c0.809,0,1.468,0.659,1.468,1.468V412.328z"/>
	</g>
</g>
<g>
	<g>
		<path d="M302.344,373.266h-21.383c-9.748,0-17.68,7.931-17.68,17.68v21.382c0,9.749,7.931,17.68,17.68,17.68h21.383
			c9.748,0,17.68-7.931,17.68-17.68v-21.382C320.024,381.197,312.093,373.266,302.344,373.266z M303.813,412.328
			c0,0.81-0.659,1.468-1.468,1.468h-21.383c-0.81,0-1.468-0.658-1.468-1.468v-21.382c0-0.81,0.659-1.468,1.468-1.468h21.383
			c0.809,0,1.468,0.659,1.468,1.468V412.328z"/>
	</g>
</g>
<g>
	<g>
		<path d="M373.649,373.266h-21.382c-9.749,0-17.68,7.931-17.68,17.68v21.382c0,9.749,7.931,17.68,17.68,17.68h21.382
			c9.748,0,17.68-7.931,17.68-17.68v-21.382C391.329,381.197,383.398,373.266,373.649,373.266z M375.117,412.328
			c0,0.81-0.659,1.468-1.468,1.468h-21.382c-0.81,0-1.468-0.658-1.468-1.468v-21.382c0-0.81,0.659-1.468,1.468-1.468h21.382
			c0.809,0,1.468,0.659,1.468,1.468V412.328z"/>
	</g>
</g>
<g>
</g>
<g>
</g>
<g>
</g>
<g>
</g>
<g>
</g>
<g>
</g>
<g>
</g>
<g>
</g>
<g>
</g>
<g>
</g>
<g>
</g>
<g>
</g>
<g>
</g>
<g>
</g>
<g>
</g>
</svg>
