<?xml version="1.0" encoding="iso-8859-1"?>
<!-- Generator: Adobe Illustrator 19.0.0, SVG Export Plug-In . SVG Version: 6.00 Build 0)  -->
<svg version="1.1" id="Capa_1" xmlns="http://www.w3.org/2000/svg" xmlns:xlink="http://www.w3.org/1999/xlink" x="0px" y="0px"
	 viewBox="0 0 512.001 512.001" style="enable-background:new 0 0 512.001 512.001;" xml:space="preserve">
<g>
	<g>
		<path d="M430.519,267.493c-4.168,0-7.546,3.378-7.546,7.546v185.647c0,19.973-16.249,36.222-36.222,36.222H125.247
			c-19.973,0-36.223-16.249-36.223-36.222V229.369c0-19.973,16.25-36.223,36.223-36.223h9.545h49.167h144.08h49.167h9.545
			c19.973,0,36.222,16.25,36.222,36.223c0,4.168,3.378,7.546,7.546,7.546c4.168,0,7.546-3.378,7.546-7.546
			c0-28.295-23.019-51.315-51.314-51.315h-1.999v-49.302C384.752,57.758,326.993,0,255.999,0c-22.349,0-44.367,5.817-63.675,16.824
			c-3.621,2.063-4.883,6.671-2.819,10.292c2.063,3.621,6.671,4.882,10.292,2.819c17.035-9.71,36.469-14.843,56.202-14.843
			c62.673,0,113.662,50.988,113.662,113.661v49.302h-33.455v-55.17c0-44.226-35.981-80.206-80.206-80.206
			c-44.225,0-80.206,35.981-80.206,80.206v55.17H142.34v-49.302c0-30.517,11.928-59.165,33.587-80.666
			c2.957-2.936,2.975-7.714,0.038-10.671c-2.935-2.956-7.713-2.974-10.671-0.038c-24.534,24.355-38.046,56.807-38.046,91.375v49.302
			h-1.999c-28.295,0-51.315,23.019-51.315,51.315v231.317c0,28.294,23.019,51.314,51.315,51.314h261.504
			c28.294,0,51.314-23.019,51.314-51.314V275.039C438.065,270.871,434.687,267.493,430.519,267.493z M190.884,122.885
			c0-35.905,29.21-65.115,65.115-65.115c35.905,0,65.115,29.21,65.115,65.115v55.17h-130.23V122.885z"/>
	</g>
</g>
<g>
	<g>
		<path d="M255.999,280.271c-18.991,0-34.441,15.45-34.441,34.441c0,16.399,11.523,30.147,26.895,33.598v53.929
			c0,4.168,3.378,7.546,7.546,7.546c4.168,0,7.546-3.378,7.546-7.546V348.31c15.372-3.451,26.895-17.199,26.895-33.598
			C290.44,295.721,274.99,280.271,255.999,280.271z M255.999,334.062c-10.669-0.001-19.35-8.681-19.35-19.35s8.68-19.35,19.35-19.35
			c10.669,0,19.35,8.68,19.35,19.35C275.349,325.381,266.669,334.062,255.999,334.062z"/>
	</g>
</g>
<g>
</g>
<g>
</g>
<g>
</g>
<g>
</g>
<g>
</g>
<g>
</g>
<g>
</g>
<g>
</g>
<g>
</g>
<g>
</g>
<g>
</g>
<g>
</g>
<g>
</g>
<g>
</g>
<g>
</g>
</svg>
