<?xml version="1.0" encoding="iso-8859-1"?>
<!-- Generator: Adobe Illustrator 19.0.0, SVG Export Plug-In . SVG Version: 6.00 Build 0)  -->
<svg version="1.1" id="Capa_1" xmlns="http://www.w3.org/2000/svg" xmlns:xlink="http://www.w3.org/1999/xlink" x="0px" y="0px"
	 viewBox="0 0 512 512" style="enable-background:new 0 0 512 512;" xml:space="preserve">
<g>
	<g>
		<path d="M511.998,316.431c-0.001-0.162-0.013-0.323-0.025-0.484c-0.007-0.099-0.009-0.199-0.019-0.296
			c-0.017-0.155-0.045-0.309-0.071-0.463c-0.017-0.101-0.028-0.203-0.049-0.302c-0.03-0.142-0.071-0.282-0.109-0.423
			c-0.029-0.107-0.052-0.216-0.085-0.321c-0.039-0.125-0.09-0.246-0.135-0.369c-0.043-0.117-0.082-0.237-0.131-0.351
			c-0.044-0.104-0.099-0.205-0.148-0.308c-0.062-0.129-0.12-0.26-0.189-0.385c-0.048-0.088-0.105-0.172-0.156-0.258
			c-0.082-0.136-0.162-0.273-0.251-0.404c-0.053-0.078-0.114-0.152-0.171-0.228c-0.099-0.133-0.197-0.267-0.304-0.394
			c-0.014-0.016-0.025-0.034-0.039-0.05L400.655,183.388c-6.755-7.899-16.588-12.428-26.981-12.428h-61.412
			c-4.337,0-7.853,3.515-7.853,7.853c0,4.337,3.516,7.853,7.853,7.853h61.412c5.794,0,11.278,2.526,15.044,6.929l98.383,115.05
			H383.739c-17.609,0-31.935,14.326-31.935,31.935c0,8.949-7.28,16.229-16.229,16.229H176.426c-8.949,0-16.229-7.28-16.229-16.229
			c0-17.608-14.326-31.935-31.935-31.935H24.901l98.383-115.05c3.766-4.404,9.249-6.929,15.044-6.929h58.262
			c4.337,0,7.853-3.515,7.853-7.853c0-4.337-3.516-7.853-7.853-7.853h-58.262c-10.392,0-20.226,4.53-26.981,12.428L1.885,311.394
			c-0.014,0.016-0.025,0.034-0.039,0.05c-0.107,0.127-0.205,0.261-0.304,0.394c-0.056,0.076-0.117,0.15-0.171,0.228
			c-0.089,0.131-0.169,0.268-0.251,0.404c-0.052,0.086-0.108,0.17-0.156,0.258c-0.069,0.125-0.127,0.256-0.189,0.385
			c-0.049,0.103-0.104,0.203-0.148,0.308c-0.049,0.116-0.089,0.237-0.133,0.356c-0.045,0.121-0.094,0.241-0.133,0.363
			c-0.033,0.107-0.057,0.217-0.086,0.326c-0.037,0.139-0.078,0.278-0.108,0.419c-0.021,0.099-0.032,0.202-0.049,0.302
			c-0.026,0.154-0.054,0.308-0.071,0.463c-0.01,0.098-0.013,0.198-0.019,0.296c-0.011,0.162-0.023,0.323-0.025,0.484
			c0,0.022-0.003,0.044-0.003,0.066v149.838c0,21.876,17.798,39.675,39.675,39.675h432.649c21.877,0,39.675-17.799,39.675-39.675
			V316.497C512.001,316.475,511.998,316.453,511.998,316.431z M496.295,466.335c0,13.217-10.753,23.969-23.97,23.969H39.676
			c-13.217,0-23.97-10.753-23.97-23.969V324.35h112.556c8.949,0,16.229,7.28,16.229,16.229c0,17.608,14.326,31.935,31.935,31.935
			h159.149c17.609,0,31.935-14.326,31.935-31.935c0-8.949,7.28-16.229,16.229-16.229h112.556V466.335z"/>
	</g>
</g>
<g>
	<g>
		<path d="M326.414,89.616l-55.743-75.267c-3.943-5.324-9.97-8.378-16.63-8.358c-6.625,0.012-12.675,3.081-16.598,8.419
			L182.12,89.676c-4.636,6.308-5.32,14.566-1.785,21.551c3.534,6.986,10.592,11.325,18.421,11.325h21.088v175.116
			c0,19.364,15.754,35.119,35.119,35.119c19.365,0,35.119-15.755,35.119-35.119V122.552h19.74c7.845,0,14.91-4.352,18.439-11.358
			C331.791,104.188,331.083,95.92,326.414,89.616z M314.233,104.129c-0.412,0.818-1.666,2.719-4.413,2.719h-27.593
			c-4.337,0-7.853,3.515-7.853,7.853v182.968c0,10.704-8.709,19.413-19.413,19.413s-19.413-8.709-19.413-19.413v-182.97
			c0-4.337-3.516-7.853-7.853-7.853h-28.941c-2.741,0-3.996-1.896-4.409-2.711c-0.411-0.814-1.195-2.948,0.428-5.156l55.323-75.267
			c1.285-1.748,3.04-2.013,3.972-2.014c0.003,0,0.006,0,0.009,0c0.934,0,2.683,0.262,3.971,2l55.743,75.267
			C315.426,101.173,314.645,103.312,314.233,104.129z"/>
	</g>
</g>
<g>
</g>
<g>
</g>
<g>
</g>
<g>
</g>
<g>
</g>
<g>
</g>
<g>
</g>
<g>
</g>
<g>
</g>
<g>
</g>
<g>
</g>
<g>
</g>
<g>
</g>
<g>
</g>
<g>
</g>
</svg>
