<?xml version="1.0" encoding="iso-8859-1"?>
<!-- Generator: Adobe Illustrator 19.0.0, SVG Export Plug-In . SVG Version: 6.00 Build 0)  -->
<svg version="1.1" id="Capa_1" xmlns="http://www.w3.org/2000/svg" xmlns:xlink="http://www.w3.org/1999/xlink" x="0px" y="0px"
	 viewBox="0 0 512 512" style="enable-background:new 0 0 512 512;" xml:space="preserve">
<g>
	<g>
		<g>
			<path d="M449.916,112.4c-0.028-0.287-0.148-1.503,0.004,0.038C449.943,112.663,449.914,112.367,449.916,112.4z"/>
			<path d="M449.92,112.438c-0.182-1.842-1.027-3.415-2.257-4.763L343.373,2.324C341.902,0.852,339.887,0,337.803,0h-228.87
				C83.076,0,62.04,21.036,62.04,46.894v22.393c0,4.329,3.509,7.838,7.838,7.838s7.838-3.509,7.838-7.838V46.894
				c0-17.213,14.003-31.217,31.216-31.217h221.031v58.486c0,25.858,21.037,46.894,46.894,46.894h57.425v287.865
				c0,4.329,3.509,7.838,7.838,7.838c4.329,0,7.838-3.509,7.838-7.838V113.218C449.96,112.956,449.946,112.696,449.92,112.438z
				 M376.858,105.38c-17.213,0-31.217-14.004-31.217-31.217V26.898l77.692,78.482H376.858z"/>
		</g>
	</g>
</g>
<g>
	<g>
		<path d="M442.121,435.479c-4.329,0-7.838,3.509-7.838,7.838v21.79c0,17.213-14.004,31.216-31.216,31.216H108.933
			c-17.213,0-31.216-14.003-31.216-31.216V105.8c0-4.329-3.509-7.838-7.838-7.838c-4.329,0-7.838,3.509-7.838,7.838v359.307
			c0,25.857,21.036,46.893,46.893,46.893h294.133c25.857,0,46.893-21.036,46.893-46.893v-21.79
			C449.96,438.987,446.45,435.479,442.121,435.479z"/>
	</g>
</g>
<g>
</g>
<g>
</g>
<g>
</g>
<g>
</g>
<g>
</g>
<g>
</g>
<g>
</g>
<g>
</g>
<g>
</g>
<g>
</g>
<g>
</g>
<g>
</g>
<g>
</g>
<g>
</g>
<g>
</g>
</svg>
