<?xml version="1.0" encoding="iso-8859-1"?>
<!-- Generator: Adobe Illustrator 19.0.0, SVG Export Plug-In . SVG Version: 6.00 Build 0)  -->
<svg version="1.1" id="Capa_1" xmlns="http://www.w3.org/2000/svg" xmlns:xlink="http://www.w3.org/1999/xlink" x="0px" y="0px"
	 viewBox="0 0 512 512" style="enable-background:new 0 0 512 512;" xml:space="preserve">
<g>
	<g>
		<path d="M423.108,85.977c-4.287,0-7.763,3.476-7.763,7.763l-0.003,223.587c-0.019,0.123-0.037,0.245-0.055,0.368
			c-0.15,0.49-0.423,1.463-0.423,2.713c0,31.213-26.562,56.338-58.268,53.959c-26.457-1.985-47.817-23.343-49.804-49.8
			c-2.382-31.708,22.743-58.273,53.956-58.273c7.601,0,14.835,1.547,22.105,4.728c1.902,0.832,4.06,1.038,6.013,0.335
			c3.16-1.138,5.16-4.093,5.16-7.316V133.799c0-2.179-0.806-4.324-2.383-5.827c-2.519-2.4-6.214-2.807-9.134-1.194L274.84,186.279
			c-3.753,2.074-5.114,6.797-3.04,10.55c2.074,3.752,6.798,5.112,10.549,3.04l96.152-53.136v106.362
			c-5.829-1.547-11.767-2.327-17.751-2.327c-39.653,0-71.672,33.315-69.537,73.426c1.879,35.312,30.452,63.881,65.764,65.755
			c39.701,2.107,72.742-29.248,73.406-68.343c0.33-0.887,0.493-1.81,0.488-2.758V93.74
			C430.871,89.453,427.395,85.977,423.108,85.977z"/>
	</g>
</g>
<g>
	<g>
		<path d="M417.87,3.599c-7.909-4.662-17.812-4.803-25.841-0.372l-210.02,115.827c-8.4,4.637-13.618,13.341-13.618,22.713v233.275
			c-5.789-1.557-11.648-2.322-17.7-2.322c-38.357,0-69.563,31.24-69.563,69.64c0,38.4,31.259,69.64,69.68,69.64
			c18.18,0,35.394-6.961,48.473-19.599c12.943-12.507,20.459-29.23,21.195-47.138c0.004-0.019,0.007-0.038,0.01-0.058
			c0.109-0.66,0.274-1.656,0.274-2.846V233.902l25.62-14.159c3.753-2.074,5.114-6.797,3.04-10.55
			c-2.073-3.752-6.797-5.112-10.549-3.04l-29.628,16.373c-2.473,1.367-4.008,3.969-4.008,6.795v212.936
			c-0.017,0.139-0.043,0.275-0.065,0.407c-0.045,0.272-0.089,0.541-0.125,0.806c-0.036,0.261-0.058,0.523-0.067,0.785
			c-1.008,29.281-24.802,52.218-54.17,52.218c-29.86,0-54.153-24.276-54.153-54.114s24.24-54.114,54.036-54.114
			c7.651,0,14.944,1.596,22.297,4.88c2.402,1.072,5.183,0.857,7.39-0.575c2.207-1.431,3.539-3.883,3.539-6.513V141.766
			c0-3.664,2.197-7.245,5.593-9.12L399.529,16.821c3.248-1.793,7.255-1.734,10.454,0.151c3.304,1.95,5.357,5.388,5.357,8.971v21.942
			c0,4.288,3.476,7.763,7.763,7.763s7.763-3.475,7.763-7.763V25.943C430.867,16.891,425.888,8.329,417.87,3.599z"/>
	</g>
</g>
<g>
</g>
<g>
</g>
<g>
</g>
<g>
</g>
<g>
</g>
<g>
</g>
<g>
</g>
<g>
</g>
<g>
</g>
<g>
</g>
<g>
</g>
<g>
</g>
<g>
</g>
<g>
</g>
<g>
</g>
</svg>
