<?xml version="1.0" encoding="iso-8859-1"?>
<!-- Generator: Adobe Illustrator 19.0.0, SVG Export Plug-In . SVG Version: 6.00 Build 0)  -->
<svg version="1.1" id="Capa_1" xmlns="http://www.w3.org/2000/svg" xmlns:xlink="http://www.w3.org/1999/xlink" x="0px" y="0px"
	 viewBox="0 0 512 512" style="enable-background:new 0 0 512 512;" xml:space="preserve">
<g>
	<g>
		<path d="M457.661,0H54.339C24.376,0,0,24.376,0,54.339V457.66C0,487.623,24.376,512,54.339,512h403.322
			C487.624,512,512,487.623,512,457.66V54.339C512,24.376,487.624,0,457.661,0z M457.661,495.788H54.339
			c-21.023,0-38.127-17.104-38.127-38.128V54.339c0-21.023,17.103-38.127,38.127-38.127h403.322
			c21.023,0,38.127,17.104,38.127,38.127V457.66h0C495.788,478.684,478.684,495.788,457.661,495.788z"/>
	</g>
</g>
<g>
	<g>
		<path d="M427.529,63.394H82.537c-11.088,0-20.109,9.021-20.109,20.11V351.1c0,4.477,3.629,8.106,8.106,8.106
			s8.106-3.629,8.106-8.106V83.504c0-2.149,1.748-3.898,3.897-3.898h344.992c2.149,0,3.897,1.749,3.897,3.898v344.992
			c0,2.149-1.748,3.897-3.897,3.897H82.537c-2.149,0-3.897-1.748-3.897-3.897v-32.103l98.735-98.735l56.255,56.256
			c1.52,1.52,3.582,2.374,5.732,2.374c2.15,0,4.212-0.854,5.732-2.374l103.429-103.429l54.516,54.517
			c3.165,3.164,8.298,3.164,11.463,0c3.166-3.166,3.166-8.298,0-11.464l-60.248-60.248c-1.52-1.52-3.582-2.374-5.732-2.374
			c-2.15,0-4.212,0.854-5.732,2.374L239.362,336.719l-56.255-56.256c-1.52-1.52-3.582-2.374-5.732-2.374
			c-2.15,0-4.212,0.854-5.732,2.374L64.802,387.303c-1.501,1.51-2.375,3.604-2.374,5.735v35.458
			c0,11.088,9.021,20.109,20.109,20.109h344.992c11.088,0,20.109-9.021,20.109-20.109V83.504
			C447.638,72.415,438.617,63.394,427.529,63.394z"/>
	</g>
</g>
<g>
	<g>
		<path d="M248.634,150.396c-22.945,0-41.611,18.667-41.611,41.611c0,22.944,18.666,41.611,41.611,41.611
			c22.945,0,41.611-18.667,41.611-41.611C290.245,169.063,271.579,150.396,248.634,150.396z M248.635,217.406
			c-14.005,0-25.399-11.394-25.399-25.399c0-14.005,11.394-25.399,25.399-25.399s25.399,11.394,25.399,25.399
			S262.64,217.406,248.635,217.406z"/>
	</g>
</g>
<g>
</g>
<g>
</g>
<g>
</g>
<g>
</g>
<g>
</g>
<g>
</g>
<g>
</g>
<g>
</g>
<g>
</g>
<g>
</g>
<g>
</g>
<g>
</g>
<g>
</g>
<g>
</g>
<g>
</g>
</svg>
