<?xml version="1.0" encoding="iso-8859-1"?>
<!-- Generator: Adobe Illustrator 19.0.0, SVG Export Plug-In . SVG Version: 6.00 Build 0)  -->
<svg version="1.1" id="Capa_1" xmlns="http://www.w3.org/2000/svg" xmlns:xlink="http://www.w3.org/1999/xlink" x="0px" y="0px"
	 viewBox="0 0 512 512" style="enable-background:new 0 0 512 512;" xml:space="preserve">
<g>
	<g>
		<circle cx="152.2" cy="199.04" r="8.305"/>
	</g>
</g>
<g>
	<g>
		<circle cx="359.8" cy="199.04" r="8.305"/>
	</g>
</g>
<g>
	<g>
		<path d="M429.09,441.12c4.587,0,8.305-3.718,8.305-8.305V191.112c0-23.105-18.797-41.901-41.901-41.901h-27.388v-37.105
			C368.106,50.29,317.816,0,256,0c-61.816,0-112.106,50.29-112.106,112.106v37.105h-27.388c-23.105,0-41.901,18.797-41.901,41.901
			v278.987c0,23.105,18.797,41.901,41.901,41.901h278.986c23.104,0,41.901-18.797,41.901-41.901c0-4.587-3.718-8.305-8.305-8.305
			c-4.587,0-8.305,3.718-8.305,8.305c0,13.946-11.346,25.292-25.292,25.292H116.507c-13.946,0-25.292-11.346-25.292-25.292V191.112
			c0-13.946,11.346-25.292,25.292-25.292h35.692h207.602h35.692c13.946,0,25.292,11.346,25.292,25.292v241.703
			C420.785,437.402,424.503,441.12,429.09,441.12z M351.497,149.211H160.503v-37.105c0-52.657,42.84-95.497,95.497-95.497
			s95.497,42.84,95.497,95.497V149.211z"/>
	</g>
</g>
<g>
</g>
<g>
</g>
<g>
</g>
<g>
</g>
<g>
</g>
<g>
</g>
<g>
</g>
<g>
</g>
<g>
</g>
<g>
</g>
<g>
</g>
<g>
</g>
<g>
</g>
<g>
</g>
<g>
</g>
</svg>
