<?xml version="1.0" encoding="iso-8859-1"?>
<!-- Generator: Adobe Illustrator 19.0.0, SVG Export Plug-In . SVG Version: 6.00 Build 0)  -->
<svg version="1.1" id="Capa_1" xmlns="http://www.w3.org/2000/svg" xmlns:xlink="http://www.w3.org/1999/xlink" x="0px" y="0px"
	 viewBox="0 0 512.001 512.001" style="enable-background:new 0 0 512.001 512.001;" xml:space="preserve">
<g>
	<g>
		<path d="M501.293,104.63c-8.057-9.924-19.496-16.116-32.211-17.437l-31.393-3.261c-4.504-0.469-8.542,2.807-9.01,7.315
			s2.807,8.542,7.315,9.01l31.393,3.261c8.354,0.868,15.871,4.937,21.164,11.457c5.293,6.52,7.731,14.712,6.863,23.066
			L467.47,407.118c-0.868,8.354-4.937,15.87-11.457,21.163c-6.52,5.294-14.705,7.736-23.067,6.864l-20.685-2.148
			c0.089-1.241,0.151-2.49,0.151-3.753V82.756c0-28.614-23.28-51.893-51.894-51.893H151.482c-28.614,0-51.894,23.279-51.894,51.893
			v346.488c0,1.263,0.061,2.512,0.151,3.753l-20.685,2.148c-8.365,0.87-16.547-1.57-23.067-6.864
			c-6.52-5.293-10.589-12.809-11.457-21.163L16.586,138.041c-0.868-8.354,1.57-16.546,6.863-23.066
			c5.293-6.521,12.81-10.59,21.164-11.457l30.663-3.185c4.508-0.468,7.783-4.502,7.315-9.01s-4.507-7.785-9.01-7.315l-30.663,3.185
			c-12.715,1.321-24.155,7.513-32.211,17.437c-8.057,9.924-11.766,22.392-10.446,35.107l27.944,269.076
			c1.321,12.714,7.513,24.154,17.437,32.21c8.611,6.99,19.134,10.709,30.073,10.709c1.669,0,3.35-0.087,5.033-0.262l22.798-2.368
			c7.812,18.788,26.354,32.035,47.936,32.035h209.036c21.582,0,40.123-13.247,47.936-32.035l22.798,2.367
			c1.684,0.175,3.363,0.262,5.033,0.262c10.939,0,21.463-3.718,30.073-10.709c9.924-8.057,16.116-19.496,17.437-32.21
			l27.944-269.076C513.059,127.022,509.349,114.555,501.293,104.63z M395.999,429.244c0,19.564-15.917,35.481-35.481,35.481H151.482
			c-19.565,0-35.481-15.917-35.481-35.481V82.756c0-19.564,15.917-35.481,35.481-35.481h209.036
			c19.565,0,35.481,15.917,35.481,35.481V429.244z"/>
	</g>
</g>
<g>
</g>
<g>
</g>
<g>
</g>
<g>
</g>
<g>
</g>
<g>
</g>
<g>
</g>
<g>
</g>
<g>
</g>
<g>
</g>
<g>
</g>
<g>
</g>
<g>
</g>
<g>
</g>
<g>
</g>
</svg>
