<?xml version="1.0" encoding="iso-8859-1"?>
<!-- Generator: Adobe Illustrator 19.0.0, SVG Export Plug-In . SVG Version: 6.00 Build 0)  -->
<svg version="1.1" id="Capa_1" xmlns="http://www.w3.org/2000/svg" xmlns:xlink="http://www.w3.org/1999/xlink" x="0px" y="0px"
	 viewBox="0 0 512 512" style="enable-background:new 0 0 512 512;" xml:space="preserve">
<g>
	<g>
		<path d="M400.785,0h-289.57C89.712,0,72.218,17.493,72.218,38.996v365.555c0,4.335,3.513,7.848,7.848,7.848
			c4.335,0,7.848-3.513,7.848-7.848V38.996c0-12.847,10.453-23.3,23.3-23.3h289.57c12.847,0,23.299,10.452,23.299,23.3v434.008
			c0,12.847-10.452,23.299-23.299,23.299h-289.57c-12.847,0-23.3-10.452-23.3-23.299v-33.298c0-4.335-3.513-7.848-7.848-7.848
			c-4.335,0-7.848,3.513-7.848,7.848v33.298c0,21.502,17.494,38.996,38.997,38.996h289.57c21.502,0,38.996-17.494,38.996-38.996
			V38.996C439.78,17.493,422.286,0,400.785,0z"/>
	</g>
</g>
<g>
	<g>
		<path d="M390.806,121.113c-4.335,0-7.848,3.514-7.848,7.848v215.865c0,0.081-0.065,0.147-0.146,0.147H129.189
			c-0.081,0-0.147-0.066-0.147-0.147V58.163c0-0.081,0.066-0.147,0.147-0.147h253.622c0.081,0,0.146,0.066,0.146,0.147v24.646
			c-0.001,4.335,3.513,7.849,7.848,7.849c4.335,0,7.848-3.514,7.848-7.848V58.163c0-8.736-7.107-15.843-15.842-15.843H129.189
			c-8.736,0-15.843,7.107-15.843,15.843v286.664c0,8.736,7.107,15.844,15.843,15.844h253.622c8.735,0,15.842-7.107,15.842-15.844
			V128.961C398.654,124.627,395.141,121.113,390.806,121.113z"/>
	</g>
</g>
<g>
	<g>
		<path d="M390.804,388.855H121.194c-4.335,0-7.848,3.513-7.848,7.848c0,4.334,3.514,7.848,7.848,7.848h269.611
			c4.335,0,7.848-3.513,7.848-7.848C398.652,392.368,395.139,388.855,390.804,388.855z"/>
	</g>
</g>
<g>
	<g>
		<path d="M276.184,439.707h-154.99c-4.335,0-7.848,3.513-7.848,7.848c0,4.335,3.514,7.848,7.848,7.848h154.99
			c4.335,0,7.848-3.513,7.848-7.848C284.032,443.22,280.519,439.707,276.184,439.707z"/>
	</g>
</g>
<g>
</g>
<g>
</g>
<g>
</g>
<g>
</g>
<g>
</g>
<g>
</g>
<g>
</g>
<g>
</g>
<g>
</g>
<g>
</g>
<g>
</g>
<g>
</g>
<g>
</g>
<g>
</g>
<g>
</g>
</svg>
