<?xml version="1.0" encoding="iso-8859-1"?>
<!-- Generator: Adobe Illustrator 19.0.0, SVG Export Plug-In . SVG Version: 6.00 Build 0)  -->
<svg version="1.1" id="Capa_1" xmlns="http://www.w3.org/2000/svg" xmlns:xlink="http://www.w3.org/1999/xlink" x="0px" y="0px"
	 viewBox="0 0 512 512" style="enable-background:new 0 0 512 512;" xml:space="preserve">
<g>
	<g>
		<path d="M221.56,85.691H110.739c-14.008,0-25.404,11.396-25.404,25.404v110.821c0,14.008,11.396,25.404,25.404,25.404H221.56
			c14.008,0,25.405-11.396,25.405-25.405v-110.82C246.965,97.087,235.568,85.691,221.56,85.691z M230.753,221.916
			c0,5.069-4.124,9.193-9.193,9.193H110.739c-5.068,0-9.192-4.124-9.192-9.193V111.095c0-5.068,4.124-9.192,9.192-9.192H221.56
			c5.069,0,9.193,4.124,9.193,9.192V221.916z"/>
	</g>
</g>
<g>
	<g>
		<path d="M418.559,132.265c4.477,0,8.106-3.629,8.106-8.106v-13.064c0-14.008-11.396-25.404-25.404-25.404H290.44
			c-14.008,0-25.405,11.396-25.405,25.404v110.821c0,14.008,11.397,25.405,25.405,25.405h110.821
			c14.008,0,25.404-11.396,25.404-25.405v-68.417c0-4.477-3.629-8.106-8.106-8.106s-8.106,3.629-8.106,8.106v68.417
			c0,5.069-4.124,9.193-9.192,9.193H290.44c-5.069,0-9.193-4.124-9.193-9.193V111.095c0-5.068,4.124-9.192,9.193-9.192h110.821
			c5.068,0,9.192,4.124,9.192,9.192v13.064C410.453,128.635,414.081,132.265,418.559,132.265z"/>
	</g>
</g>
<g>
	<g>
		<path d="M221.56,264.679H110.739c-14.008,0-25.404,11.396-25.404,25.405v110.821c0,14.008,11.396,25.405,25.404,25.405H221.56
			c14.008,0,25.405-11.396,25.405-25.405V290.084C246.965,276.076,235.568,264.679,221.56,264.679z M230.753,400.905
			c0,5.069-4.124,9.193-9.193,9.193H110.739c-5.068,0-9.192-4.124-9.192-9.193V290.084c0-5.069,4.124-9.193,9.192-9.193H221.56
			c5.069,0,9.193,4.124,9.193,9.193V400.905z"/>
	</g>
</g>
<g>
	<g>
		<path d="M401.261,264.679H290.44c-14.008,0-25.405,11.396-25.405,25.405v110.821c0,14.008,11.397,25.405,25.405,25.405h110.821
			c14.008,0,25.404-11.396,25.404-25.405V290.084C426.665,276.076,415.269,264.679,401.261,264.679z M410.453,400.905
			c0,5.069-4.124,9.193-9.192,9.193H290.44c-5.069,0-9.193-4.124-9.193-9.193V290.084c0-5.069,4.124-9.193,9.193-9.193h110.821
			c5.068,0,9.192,4.124,9.192,9.193V400.905z"/>
	</g>
</g>
<g>
	<g>
		<path d="M457.661,0H54.339C24.376,0,0,24.377,0,54.339v352.213c0,4.477,3.629,8.106,8.106,8.106s8.106-3.629,8.106-8.106V54.339
			c0-21.023,17.104-38.127,38.127-38.127h403.323c21.023,0,38.127,17.104,38.127,38.127v403.322
			c0,21.023-17.104,38.127-38.127,38.127H54.339c-21.023,0-38.127-17.104-38.127-38.127v-18.102c0-4.477-3.629-8.106-8.106-8.106
			S0,435.082,0,439.559v18.102C0,487.624,24.376,512,54.339,512h403.323C487.624,512,512,487.624,512,457.661V54.339
			C512,24.377,487.624,0,457.661,0z"/>
	</g>
</g>
<g>
</g>
<g>
</g>
<g>
</g>
<g>
</g>
<g>
</g>
<g>
</g>
<g>
</g>
<g>
</g>
<g>
</g>
<g>
</g>
<g>
</g>
<g>
</g>
<g>
</g>
<g>
</g>
<g>
</g>
</svg>
