<?xml version="1.0" encoding="iso-8859-1"?>
<!-- Generator: Adobe Illustrator 19.0.0, SVG Export Plug-In . SVG Version: 6.00 Build 0)  -->
<svg version="1.1" id="Capa_1" xmlns="http://www.w3.org/2000/svg" xmlns:xlink="http://www.w3.org/1999/xlink" x="0px" y="0px"
	 viewBox="0 0 511.998 511.998" style="enable-background:new 0 0 511.998 511.998;" xml:space="preserve">
<g>
	<g>
		<path d="M326.381,125.498c-13.277,0-24.078,10.801-24.078,24.078c0,13.277,10.801,24.078,24.078,24.078
			c13.277,0,24.078-10.801,24.078-24.078C350.459,136.299,339.658,125.498,326.381,125.498z M326.381,157.602
			c-4.426,0-8.026-3.6-8.026-8.026c0-4.426,3.6-8.026,8.026-8.026c4.426,0,8.026,3.6,8.026,8.026
			C334.407,154.002,330.807,157.602,326.381,157.602z"/>
	</g>
</g>
<g>
	<g>
		<path d="M500.736,142.88c-7.158-5.593-16.32-7.539-25.132-5.34l-58.142,14.503c-4.3,1.073-6.917,5.429-5.845,9.73
			c1.073,4.301,5.435,6.921,9.73,5.845l58.142-14.503c3.984-0.994,8.128-0.114,11.365,2.415c3.238,2.529,5.094,6.336,5.094,10.444
			v141.418c0,4.108-1.857,7.914-5.094,10.443c-3.238,2.529-7.382,3.408-11.366,2.415l-88.384-22.047V168.891v-32.098
			c0-28.418-23.12-51.538-51.538-51.538H51.538C23.12,85.256,0,108.376,0,136.794v199.775c0,28.418,23.12,51.538,51.538,51.538
			h1.009v18.959c0,10.85,8.827,19.677,19.676,19.677h226.455c10.85,0,19.676-8.827,19.676-19.677v-18.959h21.211
			c28.418,0,51.538-23.12,51.538-51.538v-21.824l84.498,21.077c2.377,0.593,4.777,0.885,7.158,0.885
			c6.449-0.001,12.747-2.14,17.975-6.224c7.159-5.592,11.264-14.009,11.264-23.093V165.973
			C512,156.889,507.894,148.472,500.736,142.88z M339.567,372.055H310.33H128.99c-4.433,0-8.026,3.593-8.026,8.026
			c0,4.433,3.593,8.026,8.026,8.026h173.314v18.959c0,1.999-1.626,3.624-3.624,3.624H72.223c-1.999,0-3.624-1.626-3.624-3.624
			v-18.959h17.684h6.988c4.433,0,8.026-3.593,8.026-8.026c0-4.433-3.593-8.026-8.026-8.026h-6.988h-25.71h-9.035
			c-19.567,0-35.486-15.919-35.486-35.486V136.794c0-19.567,15.919-35.486,35.486-35.486h288.028
			c19.567,0,35.486,15.919,35.486,35.486v32.098v135.581v32.096h0.001C375.053,356.136,359.134,372.055,339.567,372.055z"/>
	</g>
</g>
<g>
</g>
<g>
</g>
<g>
</g>
<g>
</g>
<g>
</g>
<g>
</g>
<g>
</g>
<g>
</g>
<g>
</g>
<g>
</g>
<g>
</g>
<g>
</g>
<g>
</g>
<g>
</g>
<g>
</g>
</svg>
