<?xml version="1.0" encoding="iso-8859-1"?>
<!-- Generator: Adobe Illustrator 19.0.0, SVG Export Plug-In . SVG Version: 6.00 Build 0)  -->
<svg version="1.1" id="Capa_1" xmlns="http://www.w3.org/2000/svg" xmlns:xlink="http://www.w3.org/1999/xlink" x="0px" y="0px"
	 viewBox="0 0 512 512" style="enable-background:new 0 0 512 512;" xml:space="preserve">
<g>
	<g>
		<path d="M349.758,45.127h-39.99v-17.48C309.769,12.403,297.366,0,282.121,0h-52.242c-15.245,0-27.647,12.403-27.647,27.647v17.48
			h-39.99c-18.133,0-32.886,14.752-32.886,32.886v365.096c0,4.325,3.506,7.83,7.83,7.83c4.325,0,7.83-3.506,7.83-7.83V78.013
			c0-9.498,7.727-17.225,17.225-17.225h47.82h91.877h47.82c9.498,0,17.225,7.727,17.225,17.225v401.102
			c0,9.497-7.727,17.224-17.225,17.224H162.242c-9.498,0-17.225-7.727-17.225-17.224c0-4.325-3.506-7.83-7.83-7.83
			c-4.325,0-7.83,3.506-7.83,7.83c0,18.133,14.752,32.885,32.886,32.885h187.516c18.133,0,32.886-14.752,32.886-32.885V78.013
			C382.644,59.88,367.891,45.127,349.758,45.127z M294.108,45.127h-76.216v-17.48c0-6.609,5.377-11.987,11.987-11.987h52.242
			c6.609,0,11.987,5.377,11.987,11.987V45.127z"/>
	</g>
</g>
<g>
	<g>
		<path d="M336.647,266.649c-1.391-2.422-3.965-3.919-6.757-3.931l-20.609-0.086c-0.011,0-0.022,0-0.033,0
			c-4.309,0-7.812,3.484-7.83,7.798c-0.018,4.325,3.473,7.845,7.798,7.863l7.108,0.03l-58.121,100.603v-72.619
			c0-4.325-3.506-7.83-7.83-7.83h-46.869l55.508-96.689v68.554c0,4.314,3.49,7.816,7.804,7.83l14.912,0.049c0.009,0,0.017,0,0.027,0
			c4.312,0,7.816-3.489,7.83-7.804c0.014-4.325-3.48-7.842-7.804-7.856l-7.108-0.023V172.42c-0.002-3.548-2.387-6.652-5.815-7.566
			c-3.428-0.915-7.042,0.59-8.808,3.667l-76.863,133.887c-1.391,2.423-1.386,5.404,0.014,7.822c1.4,2.418,3.982,3.907,6.777,3.907
			h52.563v93.996c0,3.544,2.38,6.646,5.802,7.563c0.674,0.18,1.356,0.268,2.028,0.268c2.746,0,5.356-1.449,6.78-3.914
			l79.486-137.584C338.034,272.048,338.036,269.07,336.647,266.649z"/>
	</g>
</g>
<g>
</g>
<g>
</g>
<g>
</g>
<g>
</g>
<g>
</g>
<g>
</g>
<g>
</g>
<g>
</g>
<g>
</g>
<g>
</g>
<g>
</g>
<g>
</g>
<g>
</g>
<g>
</g>
<g>
</g>
</svg>
