<?xml version="1.0" encoding="iso-8859-1"?>
<!-- Generator: Adobe Illustrator 19.0.0, SVG Export Plug-In . SVG Version: 6.00 Build 0)  -->
<svg version="1.1" id="Capa_1" xmlns="http://www.w3.org/2000/svg" xmlns:xlink="http://www.w3.org/1999/xlink" x="0px" y="0px"
	 viewBox="0 0 512 512" style="enable-background:new 0 0 512 512;" xml:space="preserve">
<g>
	<g>
		<g>
			<path d="M511.997,316.434C511.995,316.266,511.997,316.454,511.997,316.434L511.997,316.434z"/>
			<path d="M511.997,316.434C511.98,314.6,511.997,316.454,511.997,316.434L511.997,316.434z"/>
			<path d="M511.997,316.434c-0.017-1.833-0.688-3.646-1.881-5.04L400.653,183.387c-6.754-7.898-16.588-12.428-26.98-12.428h-57.889
				c-4.337,0-7.853,3.516-7.853,7.853c0,4.337,3.515,7.853,7.853,7.853h57.889c5.794,0,11.277,2.526,15.043,6.93l98.382,115.05
				h-103.36c-17.608,0-31.935,14.326-31.935,31.935c0,8.949-7.28,16.229-16.229,16.229H176.425c-8.949,0-16.229-7.28-16.229-16.229
				c0-17.609-14.326-31.935-31.935-31.935H24.901l98.383-115.05c3.766-4.404,9.248-6.929,15.043-6.929h54.184
				c4.337,0,7.853-3.516,7.853-7.853s-3.515-7.853-7.853-7.853h-54.184c-10.392,0-20.226,4.53-26.98,12.428L1.884,311.392
				C0.68,312.8,0,314.645,0,316.496v149.838c0,21.877,17.799,39.675,39.675,39.675h432.65c21.876,0,39.675-17.798,39.675-39.675
				V316.496C512,316.475,511.997,316.454,511.997,316.434z M496.295,466.335h-0.001c0,13.217-10.753,23.97-23.969,23.97H39.675
				c-13.217,0-23.969-10.753-23.969-23.97V324.35h112.556c8.949,0,16.229,7.28,16.229,16.229c0,17.609,14.326,31.935,31.935,31.935
				h159.149c17.608,0,31.935-14.326,31.935-31.935c0-8.949,7.28-16.229,16.229-16.229h112.556V466.335z"/>
		</g>
	</g>
</g>
<g>
	<g>
		<path d="M328.242,227.55c-3.534-6.985-10.593-11.325-18.422-11.325h-21.088V41.11c0-19.365-15.755-35.119-35.119-35.119
			c-19.365,0-35.12,15.754-35.12,35.119v175.116h-19.739c-7.844,0-14.909,4.351-18.438,11.357
			c-3.53,7.006-2.822,15.274,1.847,21.578l55.743,75.266c3.936,5.314,9.98,8.359,16.59,8.359c0.013,0,0.027,0,0.039,0
			c6.626-0.012,12.676-3.08,16.599-8.419l55.322-75.267C331.093,242.792,331.777,234.535,328.242,227.55z M313.803,239.798
			l-55.322,75.267c-1.286,1.749-3.041,2.013-3.972,2.015c-0.003,0-0.006,0-0.006,0c-0.938,0-2.686-0.262-3.973-2.001l-55.743-75.267
			c-1.635-2.208-0.854-4.347-0.443-5.164c0.412-0.817,1.667-2.718,4.413-2.718h27.59v0.001c4.337,0,7.853-3.516,7.853-7.853V41.11
			c0-10.704,8.71-19.413,19.414-19.413s19.413,8.709,19.413,19.413v182.968c0,4.337,3.515,7.853,7.853,7.853h28.941
			c2.741,0,3.997,1.895,4.409,2.71S315.426,237.589,313.803,239.798z"/>
	</g>
</g>
<g>
</g>
<g>
</g>
<g>
</g>
<g>
</g>
<g>
</g>
<g>
</g>
<g>
</g>
<g>
</g>
<g>
</g>
<g>
</g>
<g>
</g>
<g>
</g>
<g>
</g>
<g>
</g>
<g>
</g>
</svg>
