<?xml version="1.0" encoding="iso-8859-1"?>
<!-- Generator: Adobe Illustrator 19.0.0, SVG Export Plug-In . SVG Version: 6.00 Build 0)  -->
<svg version="1.1" id="Capa_1" xmlns="http://www.w3.org/2000/svg" xmlns:xlink="http://www.w3.org/1999/xlink" x="0px" y="0px"
	 viewBox="0 0 512 512" style="enable-background:new 0 0 512 512;" xml:space="preserve">
<g>
	<g>
		<path d="M354.335,0h-43.199c-4.405,0-7.975,3.571-7.975,7.975c0,4.404,3.57,7.975,7.975,7.975h43.199
			c16.441,0,29.817,13.376,29.817,29.817v43.199c0,4.404,3.57,7.975,7.975,7.975c4.405,0,7.975-3.571,7.975-7.975V45.767
			C400.103,20.531,379.571,0,354.335,0z"/>
	</g>
</g>
<g>
	<g>
		<path d="M200.863,0h-43.199c-25.236,0-45.767,20.531-45.767,45.767v43.199c-0.001,4.405,3.569,7.975,7.974,7.975
			c4.405,0,7.975-3.571,7.975-7.975V45.767c0-16.441,13.376-29.817,29.817-29.817h43.199c4.405,0,7.975-3.571,7.975-7.975
			C208.837,3.571,205.268,0,200.863,0z"/>
	</g>
</g>
<g>
	<g>
		<path d="M392.127,415.059c-4.405,0-7.975,3.571-7.975,7.975v43.199c0,16.441-13.376,29.817-29.817,29.817h-43.199
			c-4.405,0-7.975,3.571-7.975,7.975s3.57,7.975,7.975,7.975h43.199c25.236,0,45.767-20.531,45.767-45.767v-43.199
			C400.103,418.629,396.533,415.059,392.127,415.059z"/>
	</g>
</g>
<g>
	<g>
		<path d="M200.863,496.05h-43.199c-16.441,0-29.817-13.376-29.817-29.817v-43.199c0-4.404-3.57-7.975-7.975-7.975
			c-4.405,0-7.975,3.571-7.975,7.975v43.199c0,25.236,20.532,45.767,45.767,45.767h43.199c4.405,0,7.975-3.571,7.975-7.975
			C208.838,499.62,205.268,496.05,200.863,496.05z"/>
	</g>
</g>
<g>
	<g>
		<path d="M341.119,179.914c-1.531-2.834-3.333-5.548-5.36-8.068c-4.115-5.114-9.074-9.379-14.737-12.674
			c-8.083-4.705-17.323-7.191-26.721-7.191h-76.604c-29.327,0-53.187,23.859-53.187,53.186v99.445
			c0,7.193,5.853,13.045,13.046,13.045h22.626v7.596c0,4.404,3.57,7.975,7.975,7.975c4.405,0,7.975-3.571,7.975-7.975v-15.571
			c0-0.482-0.05-0.952-0.132-1.41v-90.254c0-4.404-3.57-7.975-7.975-7.975c-4.405,0-7.975,3.571-7.975,7.975v83.689h-19.59v-96.54
			c0-20.532,16.704-37.236,37.237-37.236h76.604c6.583,0,13.048,1.738,18.698,5.026c3.97,2.31,7.447,5.301,10.332,8.888
			c1.421,1.765,2.683,3.666,3.756,5.651c2.912,5.388,4.451,11.499,4.451,17.671c0,4.404,3.57,7.975,7.975,7.975
			c4.405,0,7.975-3.571,7.975-7.975C347.488,196.356,345.286,187.623,341.119,179.914z"/>
	</g>
</g>
<g>
	<g>
		<path d="M339.514,226.769c-4.405,0-7.975,3.571-7.975,7.975v66.964h-19.852v-83.689c0-4.404-3.57-7.975-7.975-7.975
			c-4.405,0-7.975,3.571-7.975,7.975v91.664c0,0.477,0.049,0.942,0.13,1.396v128.258h-79.734v-82.802
			c0-4.405-3.57-7.975-7.975-7.975c-4.405,0-7.975,3.571-7.975,7.975v90.777c0,4.404,3.57,7.975,7.975,7.975h95.684
			c4.405,0,7.975-3.571,7.975-7.975V317.658h22.626c7.193,0,13.046-5.852,13.046-13.045v-69.869
			C347.488,230.34,343.918,226.769,339.514,226.769z"/>
	</g>
</g>
<g>
	<g>
		<path d="M257.709,56.712c-25.268,0-45.824,20.557-45.824,45.825s20.556,45.825,45.824,45.825
			c25.268,0,45.825-20.557,45.825-45.825S282.977,56.712,257.709,56.712z M257.709,132.412c-16.472,0-29.874-13.402-29.874-29.875
			c0-16.473,13.402-29.874,29.874-29.874c16.473,0,29.874,13.401,29.874,29.874C287.582,119.01,274.181,132.412,257.709,132.412z"/>
	</g>
</g>
<g>
</g>
<g>
</g>
<g>
</g>
<g>
</g>
<g>
</g>
<g>
</g>
<g>
</g>
<g>
</g>
<g>
</g>
<g>
</g>
<g>
</g>
<g>
</g>
<g>
</g>
<g>
</g>
<g>
</g>
</svg>
