<?xml version="1.0" encoding="iso-8859-1"?>
<!-- Generator: Adobe Illustrator 19.0.0, SVG Export Plug-In . SVG Version: 6.00 Build 0)  -->
<svg version="1.1" id="Capa_1" xmlns="http://www.w3.org/2000/svg" xmlns:xlink="http://www.w3.org/1999/xlink" x="0px" y="0px"
	 viewBox="0 0 512 512" style="enable-background:new 0 0 512 512;" xml:space="preserve">
<g>
	<g>
		<path d="M449.92,112.438c-0.016-0.166-0.046-0.328-0.073-0.491c-0.015-0.089-0.023-0.179-0.041-0.267
			c-0.038-0.192-0.089-0.38-0.142-0.567c-0.016-0.057-0.027-0.116-0.044-0.173c-0.058-0.191-0.128-0.376-0.199-0.56
			c-0.02-0.052-0.036-0.106-0.057-0.157c-0.072-0.175-0.156-0.344-0.24-0.512c-0.03-0.06-0.055-0.121-0.086-0.18
			c-0.081-0.152-0.172-0.297-0.263-0.442c-0.044-0.072-0.084-0.146-0.131-0.216c-0.088-0.132-0.185-0.256-0.28-0.382
			c-0.058-0.077-0.113-0.157-0.174-0.233c-0.102-0.125-0.213-0.242-0.323-0.36c-0.059-0.064-0.113-0.132-0.175-0.194l-0.028-0.028
			l-0.001-0.001L343.374,2.324c-0.004-0.004-0.009-0.008-0.013-0.012c-0.157-0.158-0.324-0.307-0.494-0.452
			c-0.025-0.021-0.046-0.044-0.071-0.065c-0.977-0.808-2.154-1.382-3.445-1.641c-0.02-0.004-0.04-0.005-0.059-0.009
			c-0.231-0.045-0.465-0.082-0.703-0.106C338.327,0.013,338.066,0,337.803,0H108.934C83.075,0,62.039,21.036,62.039,46.893v389.63
			c0,4.329,3.509,7.838,7.838,7.838c4.329,0,7.838-3.509,7.838-7.838V46.893c0-17.213,14.004-31.216,31.217-31.216h221.031v58.486
			c0,25.857,21.036,46.893,46.893,46.893h57.426v344.051c0,17.213-14.004,31.216-31.217,31.216H108.934
			c-17.213,0-31.217-14.003-31.217-31.216c0-4.329-3.509-7.838-7.838-7.838c-4.329,0-7.838,3.509-7.838,7.838
			c0,25.857,21.036,46.893,46.894,46.893h294.132c25.858,0,46.894-21.036,46.894-46.893V113.218
			C449.96,112.956,449.946,112.696,449.92,112.438z M376.858,105.379c-17.213,0-31.216-14.003-31.216-31.216V26.898l77.691,78.481
			H376.858z"/>
	</g>
</g>
<g>
	<g>
		<path d="M383.759,227.27c-4.329,0-7.838,3.509-7.838,7.838V411.78c0,9.321-7.583,16.905-16.905,16.905H152.983
			c-9.321,0-16.905-7.583-16.905-16.905V205.746c0-9.321,7.583-16.905,16.905-16.905h206.034
			c9.321,0.001,16.904,7.584,16.904,16.905c0,4.329,3.509,7.838,7.838,7.838c4.329,0,7.838-3.509,7.838-7.838
			c0-17.966-14.616-32.581-32.581-32.581H152.983c-17.965,0-32.581,14.616-32.581,32.581V411.78
			c0,17.966,14.616,32.581,32.581,32.581h206.034c17.965,0,32.581-14.616,32.581-32.581V235.108
			C391.598,230.779,388.088,227.27,383.759,227.27z"/>
	</g>
</g>
<g>
	<g>
		<path d="M277.077,360.133l-31.558-103.279c-1.354-3.562-5.187-5.342-11.5-5.342c-6.2,0-9.979,1.913-11.331,5.733l-31.65,103.299
			c-0.107,0.319-0.159,0.797-0.159,1.432c0,1.91,1.114,3.554,3.339,4.934c2.226,1.379,4.612,2.067,7.158,2.067
			c3.18,0,5.142-1.175,5.884-3.529l6.52-22.769h39.179l6.599,22.829c0.809,2.314,2.89,3.469,6.245,3.469
			c2.774,0,5.399-0.722,7.877-2.169c2.475-1.445,3.715-3.171,3.715-5.173C277.395,361.301,277.289,360.801,277.077,360.133z
			 M217.614,329.29l15.659-54.7l15.978,54.7H217.614z"/>
	</g>
</g>
<g>
	<g>
		<path d="M301.28,294.944c-1.593-1.009-3.613-1.514-6.056-1.514c-2.445,0-4.438,0.505-5.977,1.514
			c-1.541,1.011-2.311,2.311-2.311,3.905v64.549c0,1.382,0.797,2.657,2.39,3.825c1.594,1.171,3.559,1.753,5.897,1.753
			c2.336,0,4.328-0.583,5.977-1.753c1.646-1.168,2.471-2.443,2.471-3.825v-64.549C303.671,297.254,302.874,295.954,301.28,294.944z"
			/>
	</g>
</g>
<g>
	<g>
		<path d="M302.077,259.481c-1.913-1.698-4.199-2.55-6.854-2.55c-2.657,0-4.941,0.852-6.853,2.55
			c-1.913,1.701-2.869,3.773-2.869,6.216c0,2.338,0.956,4.383,2.869,6.136c1.913,1.753,4.197,2.63,6.853,2.63
			c2.655,0,4.941-0.877,6.854-2.63c1.913-1.753,2.869-3.798,2.869-6.136C304.946,263.254,303.989,261.182,302.077,259.481z"/>
	</g>
</g>
<g>
</g>
<g>
</g>
<g>
</g>
<g>
</g>
<g>
</g>
<g>
</g>
<g>
</g>
<g>
</g>
<g>
</g>
<g>
</g>
<g>
</g>
<g>
</g>
<g>
</g>
<g>
</g>
<g>
</g>
</svg>
