<?xml version="1.0" encoding="iso-8859-1"?>
<!-- Generator: Adobe Illustrator 19.0.0, SVG Export Plug-In . SVG Version: 6.00 Build 0)  -->
<svg version="1.1" id="Capa_1" xmlns="http://www.w3.org/2000/svg" xmlns:xlink="http://www.w3.org/1999/xlink" x="0px" y="0px"
	 viewBox="0 0 511.999 511.999" style="enable-background:new 0 0 511.999 511.999;" xml:space="preserve">
<g>
	<g>
		<path d="M392.228,439.952c-4.307,0-7.799,3.492-7.799,7.799v24.26c0,13.448-10.941,24.39-24.39,24.39H151.96
			c-13.449,0-24.39-10.941-24.39-24.39V78.237c0-4.307-3.492-7.799-7.799-7.799c-4.307,0-7.799,3.492-7.799,7.799v393.774
			c0,22.049,17.938,39.988,39.988,39.988h208.078c22.05,0,39.988-17.939,39.988-39.988v-24.26
			C400.027,443.444,396.535,439.952,392.228,439.952z"/>
	</g>
</g>
<g>
	<g>
		<path d="M360.038,0h-25.266H177.226H151.96c-22.05,0-39.988,17.939-39.988,39.988V50.16c0,4.307,3.492,7.799,7.799,7.799
			s7.799-3.492,7.799-7.799V39.988c0-13.448,10.941-24.39,24.39-24.39h25.266h7.489c2.752,0,4.99,2.238,4.99,4.99v5.343
			c0,11.353,9.236,20.588,20.588,20.588h84.652c11.353,0,20.588-9.236,20.588-20.588v-5.343c0-2.752,2.238-4.99,4.99-4.99h14.248
			h25.266c13.448,0,24.39,10.941,24.39,24.39v370.327c0,4.307,3.492,7.799,7.799,7.799s7.799-3.492,7.799-7.799V39.988
			C400.027,17.939,382.088,0,360.038,0z M299.936,20.588v5.343c0,2.752-2.238,4.99-4.99,4.99h-84.652c-2.752,0-4.99-2.238-4.99-4.99
			v-5.343c0-1.72-0.212-3.392-0.611-4.99h95.854C300.147,17.197,299.936,18.869,299.936,20.588z"/>
	</g>
</g>
<g>
	<g>
		<path d="M171.096,428.622c-12.902,0-23.398,10.496-23.398,23.398c0,12.902,10.496,23.398,23.398,23.398
			c12.902,0,23.398-10.496,23.398-23.398C194.494,439.118,183.999,428.622,171.096,428.622z M171.096,459.819
			c-4.3,0-7.799-3.499-7.799-7.799c0-4.3,3.498-7.799,7.799-7.799c4.301,0,7.799,3.499,7.799,7.799
			C178.895,456.321,175.397,459.819,171.096,459.819z"/>
	</g>
</g>
<g>
	<g>
		<path d="M330.306,428.622c-12.902,0-23.398,10.496-23.398,23.398c0,12.902,10.496,23.398,23.398,23.398
			s23.398-10.496,23.398-23.398C353.704,439.118,343.208,428.622,330.306,428.622z M330.306,459.819c-4.3,0-7.799-3.498-7.799-7.799
			c0-4.301,3.499-7.799,7.799-7.799c4.3,0,7.799,3.499,7.799,7.799C338.105,456.321,334.605,459.819,330.306,459.819z"/>
	</g>
</g>
<g>
</g>
<g>
</g>
<g>
</g>
<g>
</g>
<g>
</g>
<g>
</g>
<g>
</g>
<g>
</g>
<g>
</g>
<g>
</g>
<g>
</g>
<g>
</g>
<g>
</g>
<g>
</g>
<g>
</g>
</svg>
