<?xml version="1.0" encoding="iso-8859-1"?>
<!-- Generator: Adobe Illustrator 19.0.0, SVG Export Plug-In . SVG Version: 6.00 Build 0)  -->
<svg version="1.1" id="Capa_1" xmlns="http://www.w3.org/2000/svg" xmlns:xlink="http://www.w3.org/1999/xlink" x="0px" y="0px"
	 viewBox="0 0 512.001 512.001" style="enable-background:new 0 0 512.001 512.001;" xml:space="preserve">
<g>
	<g>
		<path d="M421.211,161.041h-73.863h-76.626h-76.625h-76.625H43.61c-5.841,0-10.593,4.752-10.593,10.593v168.734
			c0,5.841,4.752,10.593,10.593,10.593h73.863h76.625h76.625h76.625h73.863c5.841,0,10.593-4.752,10.593-10.593V171.634
			C431.804,165.793,427.052,161.041,421.211,161.041z M186.265,335.3h-60.964V233.032c0.002-4.325-3.504-7.831-7.829-7.831
			c-4.325,0-7.83,3.506-7.83,7.83v102.268H48.677V176.702h60.964v21.876c0,4.325,3.506,7.83,7.83,7.83c4.325,0,7.83-3.506,7.83-7.83
			v-21.876h60.964V335.3z M262.892,335.3h-60.964V176.702h60.964V335.3z M416.142,335.3h-60.964v-26.401
			c0-4.325-3.506-7.83-7.83-7.83s-7.83,3.506-7.83,7.83V335.3h-60.964V176.702h60.964v102.104c0,4.325,3.506,7.83,7.83,7.83
			s7.83-3.506,7.83-7.83V176.702h60.964V335.3z"/>
	</g>
</g>
<g>
	<g>
		<path d="M484.353,202.232h-17.48v-39.99c0-18.133-14.752-32.886-32.886-32.886c-4.325,0-7.83,3.506-7.83,7.83
			c0,4.325,3.506,7.83,7.83,7.83c9.498,0,17.225,7.727,17.225,17.225v47.82v91.877v47.82c0,9.498-7.727,17.225-17.225,17.225H32.886
			c-9.498,0-17.225-7.727-17.225-17.225V162.243c0-9.498,7.727-17.225,17.225-17.225h366.986c4.325,0,7.83-3.506,7.83-7.83
			c0-4.325-3.506-7.83-7.83-7.83H32.886C14.752,129.357,0,144.11,0,162.243v187.516c0,18.133,14.752,32.886,32.886,32.886h401.102
			c18.133,0,32.886-14.752,32.886-32.886v-39.99h17.48c15.245,0,27.647-12.403,27.647-27.647V229.88
			C512,214.635,499.597,202.232,484.353,202.232z M496.339,282.122c0,6.609-5.377,11.987-11.987,11.987h-17.48v-76.216h17.48
			c6.609,0,11.987,5.377,11.987,11.987V282.122z"/>
	</g>
</g>
<g>
</g>
<g>
</g>
<g>
</g>
<g>
</g>
<g>
</g>
<g>
</g>
<g>
</g>
<g>
</g>
<g>
</g>
<g>
</g>
<g>
</g>
<g>
</g>
<g>
</g>
<g>
</g>
<g>
</g>
</svg>
