<?xml version="1.0" encoding="utf-8"?>
<!-- Generator: Adobe Illustrator 22.0.1, SVG Export Plug-In . SVG Version: 6.00 Build 0)  -->
<svg version="1.1" id="Layer_1" xmlns="http://www.w3.org/2000/svg" xmlns:xlink="http://www.w3.org/1999/xlink" x="0px" y="0px"
	 viewBox="0 0 420.2 359" style="enable-background:new 0 0 420.2 359;" xml:space="preserve">
<style type="text/css">
	.st0{stroke:#000000;stroke-miterlimit:10;}
</style>
<g>
	<path d="M136.5,309.7l10,43.5c0.8,3.4,3.8,5.8,7.3,5.8h258.9c2.3,0,4.4-1,5.9-2.8c1.4-1.8,2-4.1,1.4-6.4l-26-113l26-113
		c0.3-1.1,0.3-2.3,0-3.4L393.6,5.8c-0.8-3.4-3.8-5.8-7.3-5.8L127.4,0c-2.3,0-4.4,1-5.9,2.8s-2,4.1-1.4,6.4l26,113l-12,52.1
		c-0.9,4,1.6,8.1,5.6,9c4,0.9,8.1-1.6,9-5.6l11.1-48h243.5l-23,99.7H194.8c-4.1,0-7.5,3.4-7.5,7.5s3.4,7.5,7.5,7.5h185.5l23,99.7
		H159.8l-8.7-37.7c-0.9-4-5-6.6-9-5.6C138.1,301.6,135.6,305.7,136.5,309.7z M403.3,114.7H159.8l-23-99.7h243.5L403.3,114.7z"/>
</g>
<g>
	<path d="M1.4,119.9l114.8,159.5c0.7,1,1.7,1.8,2.9,2.4l52.5,25.1c0.6,0.3,1.2,0.5,1.8,0.6c2,0.4,4.1,0,5.8-1.3
		c2.2-1.6,3.4-4.3,3.1-7l-7.1-57.7c-0.2-1.3-0.6-2.4-1.4-3.5L59,78.4c-1.2-1.6-2.9-2.7-4.9-3c-2-0.3-4,0.2-5.6,1.3L3.1,109.4
		C-0.2,111.8-1,116.5,1.4,119.9z M137,273.6l24.8-17.9l3.9,31.6L137,273.6z M18,117.2l33.2-23.9l106,147.3L124,264.5L18,117.2z"/>
</g>
<g>
	<path d="M229.4,46.6c4.4,0,12.6,1.4,12.6,5.9c0,1.5-0.9,3.5-2.5,4.3h-0.5c0,0-3.8-6.8-10.4-6.8c-6.6,0-13.5,6.5-13.5,18.2
		c0,8.9,4,16.2,13.2,16.2c8.1,0,12-5.2,12-5.2c1.1,0.4,1.2,0.6,1.2,1.2c0,1.8-5,9.2-15.5,9.2c-11.7,0-18-9.3-18-19.6
		C208.2,58.2,216.4,46.6,229.4,46.6z"/>
	<path d="M261.1,58.4c6.2,0,12.3,4.9,12.3,13c0,2.1-0.4,4.3-0.9,6.4c0.9,2.4,2.4,3.9,4.8,3.9c2.7,0,3.8-2.6,4.9-4.8
		c0.2-0.5,0.5-0.8,0.9-0.8c0.7,0,1.2,0.4,1.2,0.9c0,0.2-0.1,0.4-0.2,0.6c-1.5,3.1-3.3,6.2-7.2,6.2c-2.5,0-4.4-1.1-5.6-2.8
		c-2.1,4.6-6.1,8.2-12.3,8.2c-8.1,0-12.6-6.3-12.6-14.2C246.5,67,251.6,58.4,261.1,58.4z M266.7,75.3c-0.9-1.2-1.5-2.9-1.5-4.2
		c0-1.1,0.4-2,1.4-2.1c-0.6-4-2.4-8.1-5.5-8.1c-5.5,0-7.8,8.3-7.8,15c0,5.9,1.6,10.8,5.8,10.8C264.1,86.8,266.1,80.5,266.7,75.3z"/>
	<path d="M284,51.7c0-2.6-0.1-5.1-0.5-7.6c6.1,0,6.9,1.8,6.9,7.6c0,6.4-2.6,23.7-2.6,29c0,2.6,0.5,4.9,2.5,4.9
		c1.1,0,2.1-0.6,3.2-1.5c2.8-2.5,5.1-7.2,5.1-7.2c0.2-0.5,0.6-0.6,1-0.6c0.6,0,1.3,0.5,1,1.2c0,0-2.8,6.3-7.1,9.6
		c-1.7,1.3-3.5,2.1-5.7,2.1c-3.9,0-5.9-2.7-5.9-6.6C281.7,75.3,284,63.2,284,51.7z"/>
	<path d="M300.1,51.7c0-2.6-0.1-5.1-0.5-7.6c6.1,0,6.9,1.8,6.9,7.6c0,6.4-2.6,23.7-2.6,29c0,2.6,0.5,4.9,2.5,4.9
		c1.1,0,2.1-0.6,3.2-1.5c2.8-2.5,5.1-7.2,5.1-7.2c0.2-0.5,0.6-0.6,1-0.6c0.6,0,1.3,0.5,1,1.2c0,0-2.8,6.3-7.1,9.6
		c-1.7,1.3-3.5,2.1-5.7,2.1c-3.9,0-5.9-2.7-5.9-6.6C297.8,75.3,300.1,63.2,300.1,51.7z"/>
	<path d="M327.1,58.4c4.5,0,7.9,2.6,7.9,6.3c0,7.6-9.3,10.2-16,10.6c0.1,5.4,2.8,10.5,9.5,10.5c7.8,0,10.6-4.8,12.8-9
		c0.2-0.5,0.6-0.6,1-0.6c0.5,0,1.1,0.4,1.1,0.9c0,0.4-0.6,1.4-0.9,2c-2.4,4.4-6.9,10.3-15.4,10.3c-8.2,0-14.3-5.1-14.3-13.6
		C312.7,66.8,319.2,58.4,327.1,58.4z M328.8,65c0-2.4-1.1-4.1-2.9-4.1c-3.4,0-6.3,6.1-6.8,12.2C323.9,73.1,328.8,71.9,328.8,65z"/>
	<path d="M354,58.4c2.8,0,7.5,1.1,7.5,4.3c0,2.6-3,3.8-3,3.8h-0.3c-1.6-3.7-2.8-5.5-5.1-5.5c-4.6,0-7.4,7.8-7.4,13.6
		c0,6.4,3.1,11.3,8.9,11.3c2.2,0,4.6-0.7,6.5-1.9c0.9-0.5,1.6-1.2,2.3-1.9c2.1-2.2,3.2-4.7,3.5-5.2c0.1-0.2,0.3-0.6,1-0.6
		c0.5,0,1.1,0.4,1.1,0.8c0,0.4-0.2,0.7-0.4,1.1c-0.6,1.1-1.9,3.8-4.8,6.6c-2.8,2.7-6.9,4.7-11.6,4.7c-7.3,0-12.9-4.9-12.9-13.3
		C339.4,66.9,346.2,58.4,354,58.4z"/>
	<path d="M367.9,65.6c0-2.8-0.4-3.2-2.1-3.9l0.2-2.5c3.3-0.5,6.6-3.6,8.1-6.8l1.5,0.6l-1.1,6.2h4.1c2.3,0,2.9-0.2,2.9-0.2
		c0,2.7-1,4.2-3.2,4.2c-0.6,0-4.2-0.1-4.2-0.1c-0.7,4.2-1.5,12.1-1.5,16.2c0,4.1,0.9,6.5,4.3,6.5c1.8,0,3.1-0.6,4.2-1.6
		c2.6-2.3,5.1-7.2,5.1-7.2c0.2-0.5,0.6-0.6,1-0.6c0.6,0,1.3,0.5,1,1.2c0,0-2.8,6.3-7.1,9.6c-1.7,1.3-3.6,2.1-6.3,2.1
		c-4.8,0-8.3-2.7-8.3-7.8C366.4,78,367.9,71.4,367.9,65.6z"/>
</g>
<g>
	<path d="M218.5,176.5c0.4-5.1,0.6-9.9,0.6-14c-7,0-11.3,0.1-12.2,1l-0.3-0.2c0-3.2,0.4-5.3,5.1-5.3c1.9,0,11.3,0.2,13.3,0.2
		c7.6,0,12.2-0.1,13.2-1l0.3,0.2c0,2.8-0.1,5.8-3.6,5.8c-1.8,0-5.6-0.2-9-0.4c-0.6,8.1-1.9,20.5-1.9,30.8c0,3.2,0.1,4.6,0.1,5.8
		c-1.9,0.4-2.7,0.6-3.6,0.6c-2,0-3.5-1-3.5-2.8C217.2,197,217.5,189.8,218.5,176.5z"/>
	<path d="M243.2,162.4c0-2.6-0.1-5.1-0.5-7.6c6.1,0,6.9,1.8,6.9,7.6s-1.3,14.7-1.3,14.7h0.3c2.2-4.2,5.2-8.2,10.5-8.2
		c4.9,0,6.1,3.3,6.1,7.7c0,4.8-1.6,9.9-1.6,14.7c0,2.6,0.5,4.9,2.5,4.9c1.1,0,2.1-0.6,3.2-1.5c2.8-2.5,5.1-7.2,5.1-7.2
		c0.2-0.5,0.6-0.6,1-0.6c0.6,0,1.3,0.5,1,1.2c0,0-2.8,6.3-7.1,9.6c-1.7,1.3-3.5,2.1-5.7,2.1c-3.9,0-5.9-2.7-5.9-6.6
		c0-3.3,1.5-10.6,1.5-15.3c0-3.5-0.8-4.9-2.6-4.9c-3.1,0-5.6,4-7.2,7.7c-2,4.7-2.7,9.5-2.7,14.4c0,4.6-1.1,4.7-6.9,4.7
		C240.9,188.3,243.2,174.9,243.2,162.4z"/>
	<path d="M275,176.2c0-3.6-0.8-6.3-0.8-6.3s1.9-0.6,3.3-0.6c2.4,0,3.7,1.6,3.7,4.3c0,6.4-2.1,13.3-2.1,17.7c0,2.6,0.5,4.9,2.5,4.9
		c1.1,0,2.1-0.6,3.2-1.5c2.8-2.5,5.1-7.2,5.1-7.2c0.2-0.4,0.6-0.6,1-0.6c0.6,0,1.3,0.5,1,1.2c0,0-2.8,6.3-7.1,9.6
		c-1.7,1.3-3.5,2.1-5.7,2.1c-3.9,0-5.9-2.7-5.9-6.6C273.3,190.4,275,183.3,275,176.2z M275.1,160.3c0-2.1,1.8-3.9,3.8-3.9
		c2.1,0,3.9,1.8,3.9,3.9c0,2-1.8,3.8-3.9,3.8C277,164.1,275.1,162.3,275.1,160.3z"/>
	<path d="M290.1,186.7c1.2,0,1.8,0.7,1.8,0.7c-0.9,1.5-1.4,3.1-1.4,4.6c0,2.9,1.8,5.5,5.7,5.5c3.1,0,5.1-1.5,5.1-4.3
		c0-6.7-11.9-7-11.9-15.6c0-5.3,4.8-8.4,10.1-8.4c2.9,0,7.1,0.9,7.1,3.4c0,0.8-0.4,1.8-1.3,3H305c0,0-3.6-3.3-6.9-3.3
		c-1.8,0-3.6,0.9-3.6,3.2c0,5.8,11.8,5.9,11.8,15.5c0,6.2-5.2,9.3-10.8,9.3c-6.3,0-9.5-4.1-9.5-8.1
		C286,189.2,287.7,186.7,290.1,186.7z"/>
</g>
<g>
	<path d="M207.5,312.2c0.3-0.8,1.8-1.1,3.1-1.1c0.4-2.3,0.8-6,1.2-12.2c0.5-7.9,1-19.7,1-22.4c0-1.1-0.1-2.5-0.1-2.5
		c0.9-0.3,1.6-0.5,2.6-0.5c2.5,0,4.7,1.3,4.7,3.6c0,1.6-2.4,24.4-2.6,34.6h5.5c4.4,0,7.6-0.6,7.6-3.5c0-1.5-0.8-2.4-0.8-2.4
		s0.6-1.2,3.6-1.2c1.4,0,2.5,2.2,2.5,4.4c0,3.8-3.2,6.8-8.2,6.8c-2.4,0-7-0.9-12-1.4c-1,1-2.3,1.6-3.6,1.6c-1.3,0-2.6-0.3-3.7-1.5
		C207.8,314.1,207.5,312.8,207.5,312.2z"/>
	<path d="M241.3,292.1c0-3.6-0.8-6.3-0.8-6.3s1.9-0.6,3.3-0.6c2.4,0,3.7,1.6,3.7,4.3c0,6.4-2.1,13.3-2.1,17.7c0,2.6,0.5,4.9,2.5,4.9
		c1.1,0,2.1-0.6,3.2-1.5c2.8-2.5,5.1-7.2,5.1-7.2c0.2-0.4,0.6-0.6,1-0.6c0.6,0,1.3,0.5,1,1.2c0,0-2.8,6.3-7.1,9.6
		c-1.7,1.3-3.5,2.1-5.7,2.1c-3.9,0-5.9-2.7-5.9-6.6C239.6,306.3,241.3,299.2,241.3,292.1z M241.5,276.2c0-2.1,1.8-3.9,3.8-3.9
		c2.1,0,3.9,1.8,3.9,3.9c0,2-1.8,3.8-3.9,3.8C243.3,280,241.5,278.2,241.5,276.2z"/>
	<path d="M256.4,302.6c1.2,0,1.8,0.7,1.8,0.7c-0.9,1.5-1.4,3.1-1.4,4.6c0,2.9,1.8,5.5,5.7,5.5c3.1,0,5.1-1.5,5.1-4.3
		c0-6.7-11.9-7-11.9-15.6c0-5.3,4.8-8.4,10.1-8.4c2.9,0,7.1,0.9,7.1,3.4c0,0.8-0.4,1.8-1.3,3h-0.3c0,0-3.6-3.3-6.9-3.3
		c-1.8,0-3.6,0.9-3.6,3.2c0,5.8,11.8,5.9,11.8,15.5c0,6.2-5.2,9.3-10.8,9.3c-6.3,0-9.5-4.1-9.5-8C252.3,305.1,254,302.6,256.4,302.6
		z"/>
	<path d="M280.6,292.2c0-2.8-0.4-3.2-2.1-3.9l0.2-2.5c3.3-0.5,6.6-3.6,8.1-6.8l1.5,0.6l-1.1,6.2h4.1c2.4,0,2.9-0.2,2.9-0.2
		c0,2.7-1,4.2-3.2,4.2c-0.6,0-4.2-0.1-4.2-0.1c-0.7,4.2-1.5,12.1-1.5,16.2c0,4.1,0.9,6.5,4.3,6.5c1.8,0,3.1-0.6,4.2-1.6
		c2.6-2.3,5.1-7.2,5.1-7.2c0.2-0.5,0.6-0.6,1-0.6c0.6,0,1.3,0.5,1,1.2c0,0-2.8,6.3-7.1,9.6c-1.7,1.3-3.6,2.1-6.3,2.1
		c-4.8,0-8.3-2.7-8.3-7.8C279.1,304.6,280.6,298.1,280.6,292.2z"/>
</g>
<g>
	<path class="st0" d="M171.9,290.9H195v22.6h-23.1V290.9z M193.5,312v-19.8h-20.1V312H193.5z M179.2,296.9c1.9,3.5,3.5,7.1,4.9,10.9
		l-1.2,0.3c2.6-8.6,6.4-16.9,10.5-25l1.2,0.6c-4.1,8.5-7.5,17.3-10.5,26.2l-1.4,0.1c-1.6-4-3.5-8-5.6-11.8L179.2,296.9z"/>
</g>
<g>
	<path class="st0" d="M171.9,57.9H195v22.6h-23.1V57.9z M193.5,79V59.3h-20.1V79H193.5z M179.2,63.9c1.9,3.5,3.5,7.1,4.9,10.9
		l-1.2,0.3c2.6-8.6,6.4-16.9,10.5-25l1.2,0.6c-4.1,8.5-7.5,17.3-10.5,26.2l-1.4,0.1c-1.6-4-3.5-8-5.6-11.8L179.2,63.9z"/>
</g>
<g>
	<path class="st0" d="M171.9,174.4H195v22.6h-23.1V174.4z M193.5,195.5v-19.8h-20.1v19.8H193.5z M179.2,180.4
		c1.9,3.5,3.5,7.1,4.9,10.9l-1.2,0.3c2.6-8.6,6.4-16.9,10.5-25l1.2,0.6c-4.1,8.5-7.5,17.3-10.5,26.2l-1.4,0.1c-1.6-4-3.5-8-5.6-11.8
		L179.2,180.4z"/>
</g>
</svg>
